<svg xmlns="http://www.w3.org/2000/svg" viewBox="0 0 62 68" width="62" height="68">
    <style>
        tspan { white-space:pre }
        .shp0 { fill: #f9f0f0 }
        .shp1 { fill: #ff5e92 }
    </style>
    <g id="Background">
        <path id="Path 1" class="shp1" d="M21.5 5.54C19.3 6.34 15.77 8.23 13.65 9.75C11.53 11.26 8.49 14.52 6.9 17C5.31 19.48 3.49 23.75 2.87 26.5C2.22 29.4 2.05 33.6 2.46 36.5C2.85 39.25 4.49 44.09 6.09 47.25C8.25 51.53 9 54.41 9 58.5C9 63.33 9.24 64 11 64C12.1 64 14.6 63.21 16.56 62.25C19.77 60.67 20.75 60.63 26.81 61.86C32.28 62.97 34.32 62.99 38 61.95C40.48 61.26 44.08 59.91 46 58.96C47.92 58.02 51.27 55.28 53.44 52.87C55.61 50.47 58.28 46.48 59.37 44C60.7 41.01 61.37 37.32 61.37 33C61.37 28.68 60.7 24.99 59.37 22C58.28 19.52 55.61 15.55 53.44 13.17C51.27 10.8 47.25 7.75 44.5 6.41C40.6 4.51 37.96 3.99 32.5 4.03C28.65 4.06 23.7 4.74 21.5 5.54Z" />
        <path id="Path 2" class="shp0" d="M15.23 40.5C14.78 41.43 15.27 42.79 16.5 44.06C17.6 45.19 20.3 46.98 22.5 48.04C24.7 49.1 28.64 49.98 31.25 49.99C33.88 49.99 37.9 49.13 40.25 48.04C42.59 46.97 45.4 45.17 46.5 44.04C47.76 42.76 48.22 41.44 47.75 40.5C47.34 39.68 46.21 38.98 45.25 38.96C44.29 38.93 42.83 39.66 42 40.58C41.17 41.49 39.26 42.86 37.75 43.62C36.24 44.38 33.65 45 32 45C30.35 45 27.54 44.39 25.75 43.65C23.96 42.92 21.82 41.55 21 40.61C20.18 39.68 18.7 38.93 17.73 38.96C16.75 38.98 15.62 39.68 15.23 40.5Z" />
    </g>
</svg>