<svg xmlns="http://www.w3.org/2000/svg" viewBox="0 0 63 68" width="63" height="68">
    <style>
        tspan { white-space:pre }
        .shp0 { fill: #7269ef }
        .shp1 { fill: #ffffff }
    </style>
    <g id="Background">
        <path id="Path 1" class="shp0" d="M21.5 5.54C19.3 6.34 15.77 8.23 13.65 9.75C11.53 11.26 8.48 14.52 6.86 17C5.24 19.48 3.44 23.3 2.85 25.5C2.26 27.7 2 31.98 2.26 35C2.56 38.36 3.96 42.93 5.87 46.75C8.24 51.48 9 54.34 9 58.5C9 63.33 9.24 64 11 64C12.1 64 14.46 63.27 16.25 62.38C19.08 60.96 20.4 60.91 26.5 61.98C31.99 62.94 34.47 62.94 38 62C40.48 61.33 44.08 59.99 46 59.02C47.92 58.04 51.27 55.28 53.44 52.87C55.61 50.47 58.28 46.48 59.37 44C60.7 41.01 61.37 37.32 61.37 33C61.37 28.68 60.7 24.99 59.37 22C58.28 19.52 55.61 15.52 53.44 13.09C51.27 10.67 47.25 7.64 44.5 6.35C40.72 4.59 37.79 4.03 32.5 4.05C28.65 4.07 23.7 4.74 21.5 5.54Z" />
        <path id="Path 2" class="shp1" d="M15.23 40.5C14.78 41.43 15.27 42.79 16.5 44.06C17.6 45.19 20.3 46.98 22.5 48.04C24.7 49.1 28.52 49.99 31 50.01C33.48 50.03 37.08 49.38 39 48.57C40.92 47.76 43.81 46.06 45.41 44.8C47.43 43.2 48.12 41.97 47.66 40.75C47.3 39.79 46.21 38.98 45.25 38.96C44.29 38.93 42.83 39.66 42 40.58C41.17 41.49 39.26 42.86 37.75 43.62C36.24 44.38 33.42 45 31.5 45C29.57 45 26.76 44.38 25.25 43.62C23.74 42.86 21.82 41.49 21 40.58C20.18 39.66 18.7 38.93 17.73 38.96C16.75 38.98 15.62 39.68 15.23 40.5Z" />
    </g>
</svg>